<?xml version="1.0" ?><!DOCTYPE svg  PUBLIC '-//W3C//DTD SVG 1.1//EN'  'http://www.w3.org/Graphics/SVG/1.1/DTD/svg11.dtd'><svg height="6.82666in" style="shape-rendering:geometricPrecision; text-rendering:geometricPrecision; image-rendering:optimizeQuality; fill-rule:evenodd; clip-rule:evenodd" viewBox="0 0 6.82666 6.82666" width="6.82666in" xml:space="preserve" xmlns="http://www.w3.org/2000/svg" xmlns:xlink="http://www.w3.org/1999/xlink"><defs><style type="text/css">
   <![CDATA[
    .fil0 {fill:#ED802C}
    .fil1 {fill:white}
   ]]>
  </style></defs><g id="Layer_x0020_1"><rect class="fil0" height="6.82667" rx="1.45635" ry="1.45635" width="6.82667"/><path class="fil1" d="M2.31989 4.5053c0.0969331,0.0967598 0.155988,0.227972 0.156307,0.374169 -0.000318898,0.146047 -0.059374,0.27726 -0.155874,0.37361l-0.000433071 0.000240157c-0.0965866,0.0962598 -0.228642,0.155059 -0.375528,0.155059 -0.146693,0 -0.278425,-0.0589685 -0.375181,-0.155299 -0.096437,-0.0963504 -0.155811,-0.227476 -0.155811,-0.37361 0,-0.146197 0.059374,-0.277732 0.155811,-0.374248l0 7.87402e-005c0.0967559,-0.0963465 0.228488,-0.155547 0.375181,-0.155547 0.146799,-9.44882e-005 0.278681,0.0592874 0.375528,0.155547zm0 -0.000173228l0 0.000173228 0.00026378 0 -0.00026378 -0.000173228zm-0.750795 0.748106l0 -0.00023622 -8.66142e-005 0 8.66142e-005 0.00023622zm-0.155382 -2.47978l0 0.763862c0.498654,0.00023622 0.970272,0.196134 1.32314,0.549606 0.352874,0.35228 0.547917,0.824571 0.54876,1.32499l0.000259843 0 0 0.0014252 0.766878 0c-0.00057874,-0.727555 -0.296362,-1.38655 -0.774469,-1.865 -0.478169,-0.478433 -1.13693,-0.774472 -1.86457,-0.774882zm0.00135827 -1.36011l0 0.763429c1.78246,0.00126772 3.23126,1.45233 3.2326,3.23648l0.765626 0c-0.000511811,-1.10274 -0.448717,-2.10165 -1.173,-2.82642 -0.724508,-0.724539 -1.72299,-1.17309 -2.82523,-1.1735z"/></g></svg>