<svg height="655.359" style="shape-rendering:geometricPrecision;text-rendering:geometricPrecision;image-rendering:optimizeQuality;fill-rule:evenodd;clip-rule:evenodd" viewBox="0 0 6.827 6.827" width="655.359" xml:space="preserve" xmlns="http://www.w3.org/2000/svg"><rect height="6.827" rx="1.456" ry="1.456" width="6.827" style="fill:#ed802c"/><path d="M2.32 4.505a.527.527 0 0 1 0 .748.529.529 0 0 1-.75 0 .525.525 0 0 1 0-.748.529.529 0 0 1 .75 0zm0 0zm-.75.748h-.001zm-.156-2.48v.764c.498 0 .97.196 1.323.55.353.352.548.824.549 1.325v.001h.767c0-.727-.297-1.386-.775-1.865a2.63 2.63 0 0 0-1.864-.775zm.001-1.36v.764a3.24 3.24 0 0 1 3.233 3.236h.765A3.99 3.99 0 0 0 4.24 2.587a3.986 3.986 0 0 0-2.825-1.174z" style="fill:#fff"/></svg>